# xmcd
#
# Track frame offsets:
#   150
#   19675
#   46054
#   64943
#   80403
#   95813
#   113899
#   129284
#   145122
#
# Disc length: 2136 seconds
#
# Revision: 0
# Processed by: cddbd v1.5PL3 Copyright (c) Steve Scherf et al.
# Submitted via: Media_Universe 3.0
#
DISCID=72085609
DTITLE=ROBERT  SARKIS - Le Bon Vieux Temps
DYEAR=1900
DGENRE=Antillaise
TTITLE0=REDIS-MOI TES MENSONGES 
TTITLE1=SI TU M'ECRIVAIS
TTITLE2=DANS UN PETIT COIN PERDU
TTITLE3=TRAHISON
TTITLE4=UNE HIRONDELLE
TTITLE5=LE TANGO DES FAUVETTES
TTITLE6=AU CLAIR DE LA LUNE 
TTITLE7=TI FEMME EN MOIN POU LA VIE 
TTITLE8=TANGO INSTRUMENTAL
EXTD=
EXTT0=
EXTT1=
EXTT2=
EXTT3=
EXTT4=
EXTT5=
EXTT6=
EXTT7=
EXTT8=
PLAYORDER=
